<svg width="18" height="16" viewBox="0 0 18 16" fill="none" xmlns="http://www.w3.org/2000/svg">
<path d="M3.63449 15.67C2.56201 15.67 1.68815 15.3324 1.01289 14.6571C0.33763 13.9421 0 12.8101 0 11.261C0 9.95015 0.218466 8.65921 0.655399 7.38814C1.13205 6.11706 1.72787 4.96515 2.44285 3.93239C3.15783 2.85992 3.85295 2.00592 4.52821 1.37038C5.56096 0.456793 6.51427 0 7.38814 0C7.7059 0 7.98395 0.0993028 8.22228 0.297908C8.46061 0.456793 8.57977 0.714981 8.57977 1.07247C8.57977 1.35052 8.46061 1.62857 8.22228 1.90662C8.02367 2.18466 7.74563 2.48257 7.38814 2.80034C6.51427 3.55504 5.83901 4.46863 5.36236 5.5411C4.92542 6.57385 4.70696 7.408 4.70696 8.04354C4.70696 8.28186 4.76654 8.50033 4.8857 8.69893C5.04459 8.85782 5.38222 9.05642 5.89859 9.29475C6.41497 9.5728 6.79232 9.98987 7.03065 10.546C7.26897 11.0623 7.38814 11.5787 7.38814 12.0951C7.38814 13.0087 7.05051 13.8428 6.37525 14.5975C5.69999 15.3125 4.7864 15.67 3.63449 15.67ZM12.9888 15.67C11.8766 15.67 10.9829 15.3324 10.3076 14.6571C9.63238 13.9421 9.29475 12.8101 9.29475 11.261C9.29475 9.95015 9.51322 8.65921 9.95015 7.38814C10.4268 6.11706 11.0226 4.96515 11.7376 3.93239C12.4526 2.85992 13.1477 2.00592 13.823 1.37038C14.8557 0.456793 15.809 0 16.6829 0C17.0007 0 17.2787 0.0993028 17.517 0.297908C17.7554 0.456793 17.8745 0.714981 17.8745 1.07247C17.8745 1.35052 17.7554 1.62857 17.517 1.90662C17.3184 2.18466 17.0404 2.48257 16.6829 2.80034C15.809 3.55504 15.1536 4.46863 14.7167 5.5411C14.2798 6.57385 14.0613 7.408 14.0613 8.04354C14.0613 8.28186 14.1209 8.50033 14.24 8.69893C14.3989 8.85782 14.7167 9.05642 15.1933 9.29475C15.7097 9.5728 16.0871 9.98987 16.3254 10.546C16.6034 11.0623 16.7425 11.5787 16.7425 12.0951C16.7425 13.0087 16.4048 13.8428 15.7296 14.5975C15.0543 15.3125 14.1407 15.67 12.9888 15.67Z" fill="white"/>
</svg>
